<?xml version="1.0" encoding="utf-8" ?>
<svg baseProfile="full" height="100%" version="1.1" width="100%" xmlns="http://www.w3.org/2000/svg" xmlns:ev="http://www.w3.org/2001/xml-events" xmlns:xlink="http://www.w3.org/1999/xlink"><defs /><path d="M 0,0 L 0,1023 L 1023,1023 L 1023,0 Z" fill="none" stroke="black" /><path d="M 828,485 L 829,484 L 847,484 L 849,486 L 849,488 L 850,489 L 850,490 L 851,491 L 851,492 L 852,493 L 852,495 L 853,496 L 853,497 L 854,498 L 854,500 L 855,501 L 855,503 L 856,504 L 856,505 L 857,506 L 857,507 L 858,508 L 858,509 L 859,510 L 859,512 L 860,513 L 860,515 L 861,516 L 861,517 L 862,518 L 862,520 L 863,521 L 863,522 L 864,523 L 864,525 L 865,526 L 865,527 L 866,528 L 866,530 L 867,531 L 867,533 L 868,533 L 868,531 L 869,530 L 869,528 L 870,527 L 870,526 L 871,525 L 871,523 L 872,522 L 872,520 L 873,519 L 873,517 L 874,516 L 874,515 L 875,514 L 875,512 L 876,511 L 876,510 L 877,509 L 877,507 L 878,506 L 878,504 L 879,503 L 879,502 L 880,501 L 880,499 L 881,498 L 881,496 L 882,495 L 882,494 L 883,493 L 883,491 L 884,490 L 884,488 L 885,487 L 885,486 L 887,484 L 903,484 L 904,485 L 904,486 L 903,487 L 903,489 L 902,490 L 902,491 L 901,492 L 901,493 L 900,494 L 900,496 L 899,497 L 899,499 L 898,500 L 898,501 L 897,502 L 897,504 L 896,505 L 896,506 L 895,507 L 895,509 L 894,510 L 894,511 L 893,512 L 893,514 L 892,515 L 892,517 L 891,518 L 891,519 L 890,520 L 890,522 L 889,523 L 889,524 L 888,525 L 888,527 L 887,528 L 887,530 L 886,531 L 886,533 L 885,534 L 885,535 L 884,536 L 884,537 L 883,538 L 883,540 L 882,541 L 882,543 L 881,544 L 881,545 L 880,546 L 880,548 L 879,549 L 879,550 L 878,551 L 878,553 L 877,554 L 877,556 L 876,557 L 876,558 L 875,559 L 875,561 L 874,562 L 874,563 L 873,564 L 873,566 L 872,567 L 872,568 L 871,569 L 871,571 L 870,572 L 870,574 L 869,575 L 869,576 L 868,577 L 868,579 L 867,580 L 867,581 L 866,582 L 866,583 L 865,584 L 847,584 L 846,583 L 846,582 L 847,581 L 847,580 L 848,579 L 848,577 L 849,576 L 849,575 L 850,574 L 850,572 L 851,571 L 851,570 L 852,569 L 852,567 L 853,566 L 853,565 L 854,564 L 854,562 L 855,561 L 855,560 L 856,559 L 856,557 L 857,556 L 857,554 L 858,553 L 858,551 L 857,550 L 857,549 L 856,548 L 856,547 L 855,546 L 855,544 L 854,543 L 854,542 L 853,541 L 853,540 L 852,539 L 852,538 L 851,537 L 851,536 L 850,535 L 850,534 L 849,533 L 849,531 L 848,530 L 848,528 L 847,527 L 847,526 L 846,525 L 846,524 L 845,523 L 845,522 L 844,521 L 844,520 L 843,519 L 843,518 L 842,517 L 842,515 L 841,514 L 841,513 L 840,512 L 840,511 L 839,510 L 839,509 L 838,508 L 838,506 L 837,505 L 837,504 L 836,503 L 836,502 L 835,501 L 835,500 L 834,499 L 834,498 L 833,497 L 833,495 L 832,494 L 832,493 L 831,492 L 831,491 L 830,490 L 830,488 L 828,486 Z" fill="none" stroke="black" /><path d="M 753,485 L 754,484 L 769,484 L 770,485 L 770,555 L 769,556 L 754,556 L 753,555 Z" fill="none" stroke="black" /><path d="M 474,484 L 475,483 L 492,483 L 493,484 L 495,484 L 496,485 L 498,485 L 499,486 L 500,486 L 501,487 L 502,487 L 503,488 L 504,488 L 507,491 L 508,491 L 511,494 L 511,495 L 515,499 L 515,500 L 516,501 L 516,502 L 517,503 L 517,504 L 518,505 L 518,507 L 519,508 L 519,511 L 520,512 L 520,527 L 519,528 L 519,532 L 518,533 L 518,535 L 517,536 L 517,537 L 516,538 L 516,539 L 515,540 L 515,541 L 512,544 L 512,545 L 508,549 L 507,549 L 504,552 L 503,552 L 501,554 L 500,554 L 499,555 L 497,555 L 496,556 L 493,556 L 492,557 L 476,557 L 475,556 L 472,556 L 471,555 L 469,555 L 468,554 L 467,554 L 466,553 L 465,553 L 463,551 L 462,551 L 455,544 L 455,543 L 453,541 L 453,540 L 452,539 L 452,538 L 451,537 L 451,536 L 450,535 L 450,533 L 449,532 L 449,529 L 448,528 L 448,512 L 449,511 L 449,507 L 450,506 L 450,504 L 451,503 L 451,502 L 452,501 L 452,500 L 453,499 L 453,498 L 463,488 L 464,488 L 466,486 L 468,486 L 469,485 L 470,485 L 471,484 Z" fill="none" stroke="black" /><path d="M 479,499 L 478,500 L 476,500 L 474,502 L 473,502 L 472,503 L 471,503 L 470,504 L 470,505 L 469,506 L 469,507 L 467,509 L 467,510 L 466,511 L 466,514 L 465,515 L 465,525 L 466,526 L 466,529 L 467,530 L 467,531 L 468,532 L 468,533 L 469,534 L 469,535 L 470,535 L 471,536 L 471,537 L 472,538 L 473,538 L 474,539 L 475,539 L 476,540 L 477,540 L 478,541 L 481,541 L 482,542 L 486,542 L 487,541 L 490,541 L 492,539 L 493,539 L 494,538 L 495,538 L 498,535 L 498,534 L 500,532 L 500,531 L 501,530 L 501,529 L 502,528 L 502,524 L 503,523 L 503,517 L 502,516 L 502,512 L 501,511 L 501,510 L 500,509 L 500,508 L 499,507 L 499,506 L 495,502 L 494,502 L 492,500 L 490,500 L 489,499 Z" fill="none" stroke="black" /><path d="M 622,483 L 623,482 L 624,483 L 632,483 L 633,484 L 636,484 L 637,485 L 639,485 L 641,487 L 642,487 L 643,488 L 644,488 L 648,492 L 648,493 L 651,496 L 651,498 L 652,499 L 652,501 L 653,502 L 653,511 L 654,512 L 654,555 L 653,556 L 638,556 L 637,555 L 637,549 L 635,551 L 634,551 L 632,553 L 631,553 L 630,554 L 629,554 L 628,555 L 626,555 L 625,556 L 623,556 L 622,557 L 616,557 L 615,558 L 612,558 L 611,557 L 605,557 L 604,556 L 602,556 L 601,555 L 600,555 L 599,554 L 598,554 L 597,553 L 596,553 L 591,548 L 591,547 L 589,545 L 589,543 L 588,542 L 588,539 L 587,538 L 587,533 L 588,532 L 588,529 L 589,528 L 589,526 L 591,524 L 591,523 L 596,518 L 597,518 L 599,516 L 600,516 L 601,515 L 602,515 L 603,514 L 606,514 L 607,513 L 611,513 L 612,512 L 623,512 L 624,511 L 636,511 L 636,505 L 635,504 L 635,503 L 631,499 L 630,499 L 629,498 L 627,498 L 626,497 L 618,497 L 617,498 L 615,498 L 614,499 L 613,499 L 612,500 L 611,500 L 609,502 L 608,502 L 606,504 L 606,505 L 604,507 L 602,507 L 601,506 L 600,506 L 599,505 L 597,505 L 596,504 L 595,504 L 594,503 L 592,503 L 590,501 L 591,500 L 591,499 L 592,498 L 592,497 L 594,495 L 594,494 L 599,489 L 600,489 L 602,487 L 603,487 L 604,486 L 605,486 L 606,485 L 608,485 L 609,484 L 611,484 L 612,483 Z" fill="none" stroke="black" /><path d="M 624,524 L 623,525 L 615,525 L 614,526 L 612,526 L 611,527 L 610,527 L 609,528 L 608,528 L 608,529 L 606,531 L 606,532 L 605,533 L 605,537 L 606,538 L 606,539 L 609,542 L 610,542 L 611,543 L 613,543 L 614,544 L 620,544 L 621,543 L 625,543 L 626,542 L 628,542 L 630,540 L 631,540 L 635,536 L 635,535 L 636,534 L 636,524 Z" fill="none" stroke="black" /><path d="M 272,466 L 277,466 L 286,475 L 286,476 L 291,481 L 291,482 L 295,486 L 295,487 L 297,489 L 297,490 L 298,491 L 298,492 L 299,493 L 299,494 L 300,495 L 300,497 L 301,498 L 301,511 L 300,512 L 300,514 L 299,515 L 299,516 L 298,517 L 298,518 L 296,520 L 296,521 L 294,523 L 294,524 L 290,528 L 290,529 L 286,533 L 286,534 L 280,540 L 280,541 L 277,544 L 275,544 L 274,545 L 273,544 L 272,544 L 270,542 L 269,542 L 268,541 L 268,540 L 267,540 L 259,532 L 258,532 L 246,520 L 246,519 L 244,517 L 244,516 L 243,515 L 243,514 L 242,513 L 242,511 L 241,510 L 241,500 L 242,499 L 242,497 L 243,496 L 243,495 L 244,494 L 244,493 L 245,492 L 245,491 L 258,478 L 259,478 L 269,468 L 270,468 Z" fill="none" stroke="black" /><path d="M 395,457 L 396,456 L 411,456 L 412,457 L 416,457 L 417,458 L 419,458 L 420,459 L 421,459 L 422,460 L 423,460 L 424,461 L 425,461 L 426,462 L 427,462 L 429,464 L 430,464 L 434,468 L 435,468 L 436,469 L 436,470 L 440,474 L 440,475 L 442,477 L 442,479 L 441,480 L 440,480 L 438,482 L 437,482 L 436,483 L 435,483 L 433,485 L 432,485 L 430,487 L 429,487 L 428,488 L 424,484 L 424,483 L 422,481 L 421,481 L 418,478 L 417,478 L 415,476 L 413,476 L 412,475 L 410,475 L 409,474 L 395,474 L 394,475 L 392,475 L 391,476 L 389,476 L 388,477 L 387,477 L 385,479 L 384,479 L 379,484 L 379,485 L 376,488 L 376,490 L 375,491 L 375,492 L 374,493 L 374,495 L 373,496 L 373,501 L 372,502 L 372,511 L 373,512 L 373,516 L 374,517 L 374,519 L 375,520 L 375,522 L 376,523 L 376,524 L 377,525 L 377,526 L 379,528 L 379,529 L 385,535 L 386,535 L 387,536 L 388,536 L 389,537 L 390,537 L 391,538 L 393,538 L 394,539 L 397,539 L 398,540 L 407,540 L 408,539 L 410,539 L 411,538 L 413,538 L 414,537 L 416,537 L 418,535 L 419,535 L 422,532 L 423,532 L 425,530 L 425,529 L 427,527 L 429,527 L 431,529 L 432,529 L 433,530 L 434,530 L 435,531 L 436,531 L 438,533 L 439,533 L 440,534 L 441,534 L 442,535 L 441,536 L 441,537 L 439,539 L 439,540 L 435,544 L 435,545 L 433,547 L 432,547 L 428,551 L 427,551 L 426,552 L 425,552 L 424,553 L 423,553 L 422,554 L 421,554 L 420,555 L 418,555 L 417,556 L 414,556 L 413,557 L 408,557 L 407,558 L 396,558 L 395,557 L 390,557 L 389,556 L 387,556 L 386,555 L 384,555 L 383,554 L 382,554 L 381,553 L 380,553 L 379,552 L 378,552 L 376,550 L 375,550 L 363,538 L 363,537 L 361,535 L 361,534 L 360,533 L 360,532 L 359,531 L 359,530 L 358,529 L 358,528 L 357,527 L 357,526 L 356,525 L 356,522 L 355,521 L 355,518 L 354,517 L 354,512 L 353,511 L 353,503 L 354,502 L 354,495 L 355,494 L 355,491 L 356,490 L 356,488 L 357,487 L 357,486 L 358,485 L 358,483 L 359,482 L 359,481 L 361,479 L 361,478 L 363,476 L 363,475 L 371,467 L 372,467 L 375,464 L 376,464 L 377,463 L 378,463 L 380,461 L 381,461 L 382,460 L 384,460 L 385,459 L 386,459 L 387,458 L 391,458 L 392,457 Z" fill="none" stroke="black" /><path d="M 668,455 L 683,455 L 684,456 L 684,492 L 684,491 L 685,490 L 686,490 L 689,487 L 690,487 L 692,485 L 694,485 L 695,484 L 697,484 L 698,483 L 715,483 L 716,484 L 718,484 L 719,485 L 721,485 L 722,486 L 723,486 L 725,488 L 726,488 L 728,490 L 729,490 L 730,491 L 730,492 L 735,497 L 735,498 L 736,499 L 736,500 L 737,501 L 737,502 L 738,503 L 738,504 L 739,505 L 739,508 L 740,509 L 740,511 L 741,512 L 741,526 L 740,527 L 740,531 L 739,532 L 739,534 L 738,535 L 738,537 L 737,538 L 737,539 L 736,540 L 736,541 L 734,543 L 734,544 L 726,552 L 725,552 L 723,554 L 722,554 L 721,555 L 720,555 L 719,556 L 716,556 L 715,557 L 709,557 L 708,558 L 704,558 L 703,557 L 698,557 L 697,556 L 695,556 L 694,555 L 693,555 L 692,554 L 691,554 L 688,551 L 687,551 L 684,548 L 684,547 L 684,555 L 683,556 L 668,556 L 666,554 L 667,553 L 667,458 L 666,457 Z" fill="none" stroke="black" /><path d="M 699,499 L 698,500 L 696,500 L 695,501 L 694,501 L 693,502 L 692,502 L 690,504 L 689,504 L 688,505 L 688,506 L 686,508 L 686,509 L 685,510 L 685,511 L 684,512 L 684,515 L 683,516 L 683,524 L 684,525 L 684,528 L 685,529 L 685,530 L 687,532 L 687,533 L 688,534 L 688,535 L 689,535 L 693,539 L 694,539 L 695,540 L 697,540 L 698,541 L 708,541 L 709,540 L 711,540 L 712,539 L 713,539 L 715,537 L 716,537 L 719,534 L 719,533 L 721,531 L 721,530 L 722,529 L 722,528 L 723,527 L 723,523 L 724,522 L 724,517 L 723,516 L 723,512 L 721,510 L 721,509 L 720,508 L 720,507 L 716,503 L 715,503 L 713,501 L 712,501 L 711,500 L 709,500 L 708,499 Z" fill="none" stroke="black" /><path d="M 560,456 L 561,455 L 576,455 L 577,456 L 577,555 L 576,556 L 561,556 L 560,555 Z" fill="none" stroke="black" /><path d="M 529,456 L 530,455 L 545,455 L 546,456 L 546,555 L 545,556 L 530,556 L 529,555 Z" fill="none" stroke="black" /><path d="M 811,455 L 812,454 L 820,454 L 821,455 L 827,455 L 828,456 L 828,470 L 827,471 L 826,471 L 825,470 L 816,470 L 815,471 L 813,471 L 811,473 L 811,474 L 810,475 L 810,476 L 809,477 L 809,484 L 824,484 L 825,485 L 825,499 L 824,500 L 823,499 L 809,499 L 809,555 L 808,556 L 793,556 L 792,555 L 792,500 L 791,499 L 782,499 L 781,498 L 781,485 L 782,484 L 791,484 L 792,483 L 792,472 L 793,471 L 793,468 L 794,467 L 794,466 L 795,465 L 795,464 L 800,459 L 801,459 L 803,457 L 804,457 L 805,456 L 807,456 L 808,455 Z" fill="none" stroke="black" /><path d="M 759,455 L 760,454 L 763,454 L 764,455 L 766,455 L 767,456 L 768,456 L 771,459 L 771,460 L 772,461 L 772,469 L 771,470 L 771,471 L 767,475 L 765,475 L 764,476 L 759,476 L 758,475 L 757,475 L 756,474 L 755,474 L 752,471 L 752,470 L 751,469 L 751,465 L 750,464 L 751,463 L 751,461 L 752,460 L 752,459 L 755,456 L 756,456 L 757,455 Z" fill="none" stroke="black" /><path d="M 215,387 L 216,386 L 238,386 L 239,387 L 245,387 L 246,388 L 250,388 L 251,389 L 255,389 L 256,390 L 258,390 L 259,391 L 261,391 L 262,392 L 265,392 L 266,393 L 267,393 L 268,394 L 269,394 L 270,395 L 272,395 L 273,396 L 274,396 L 275,397 L 276,397 L 277,398 L 278,398 L 280,400 L 281,400 L 282,401 L 283,401 L 284,402 L 285,402 L 287,404 L 288,404 L 291,407 L 292,407 L 296,411 L 297,411 L 308,422 L 308,423 L 313,428 L 313,431 L 308,436 L 307,436 L 303,440 L 302,440 L 298,444 L 297,444 L 294,447 L 293,447 L 289,451 L 288,451 L 284,455 L 283,455 L 281,457 L 280,457 L 279,458 L 275,458 L 263,446 L 262,446 L 259,443 L 258,443 L 256,441 L 255,441 L 254,440 L 252,440 L 251,439 L 250,439 L 249,438 L 248,438 L 247,437 L 244,437 L 243,436 L 240,436 L 239,435 L 234,435 L 233,434 L 224,434 L 223,435 L 216,435 L 215,436 L 213,436 L 212,437 L 210,437 L 209,438 L 207,438 L 206,439 L 204,439 L 203,440 L 202,440 L 201,441 L 200,441 L 198,443 L 197,443 L 196,444 L 195,444 L 193,446 L 192,446 L 180,458 L 180,459 L 177,462 L 177,463 L 176,464 L 176,465 L 174,467 L 174,468 L 173,469 L 173,470 L 172,471 L 172,472 L 171,473 L 171,474 L 170,475 L 170,477 L 169,478 L 169,479 L 168,480 L 168,483 L 167,484 L 167,487 L 166,488 L 166,493 L 165,494 L 165,511 L 166,512 L 166,517 L 167,518 L 167,521 L 168,522 L 168,524 L 169,525 L 169,527 L 170,528 L 170,530 L 171,531 L 171,532 L 172,533 L 172,534 L 173,535 L 173,536 L 174,537 L 174,538 L 175,539 L 175,540 L 176,541 L 176,542 L 180,546 L 180,547 L 183,550 L 183,551 L 184,552 L 185,552 L 192,559 L 193,559 L 194,560 L 195,560 L 197,562 L 198,562 L 200,564 L 201,564 L 202,565 L 204,565 L 205,566 L 206,566 L 207,567 L 209,567 L 210,568 L 212,568 L 213,569 L 215,569 L 216,570 L 221,570 L 222,571 L 236,571 L 237,570 L 242,570 L 243,569 L 246,569 L 247,568 L 249,568 L 250,567 L 251,567 L 252,566 L 253,566 L 254,565 L 255,565 L 256,564 L 257,564 L 258,563 L 259,563 L 260,562 L 261,562 L 263,560 L 264,560 L 268,556 L 269,556 L 273,552 L 278,552 L 282,556 L 283,556 L 287,560 L 288,560 L 290,562 L 291,562 L 295,566 L 296,566 L 299,569 L 300,569 L 303,572 L 304,572 L 307,575 L 308,575 L 311,578 L 311,582 L 306,587 L 306,588 L 301,593 L 300,593 L 292,601 L 291,601 L 288,604 L 287,604 L 285,606 L 284,606 L 283,607 L 282,607 L 281,608 L 280,608 L 278,610 L 277,610 L 276,611 L 275,611 L 274,612 L 273,612 L 272,613 L 271,613 L 270,614 L 268,614 L 267,615 L 266,615 L 265,616 L 263,616 L 262,617 L 260,617 L 259,618 L 256,618 L 255,619 L 252,619 L 251,620 L 248,620 L 247,621 L 240,621 L 239,622 L 219,622 L 218,621 L 211,621 L 210,620 L 205,620 L 204,619 L 200,619 L 199,618 L 197,618 L 196,617 L 194,617 L 193,616 L 191,616 L 190,615 L 188,615 L 187,614 L 186,614 L 185,613 L 183,613 L 182,612 L 181,612 L 180,611 L 179,611 L 178,610 L 177,610 L 175,608 L 174,608 L 173,607 L 172,607 L 171,606 L 170,606 L 168,604 L 167,604 L 165,602 L 164,602 L 160,598 L 159,598 L 152,591 L 151,591 L 145,585 L 145,584 L 140,579 L 140,578 L 136,574 L 136,573 L 135,572 L 135,571 L 133,569 L 133,568 L 131,566 L 131,565 L 130,564 L 130,563 L 128,561 L 128,559 L 127,558 L 127,557 L 126,556 L 126,555 L 125,554 L 125,553 L 124,552 L 124,551 L 123,550 L 123,549 L 122,548 L 122,546 L 121,545 L 121,543 L 120,542 L 120,540 L 119,539 L 119,536 L 118,535 L 118,533 L 117,532 L 117,528 L 116,527 L 116,523 L 115,522 L 115,515 L 114,514 L 114,491 L 115,490 L 115,483 L 116,482 L 116,477 L 117,476 L 117,473 L 118,472 L 118,469 L 119,468 L 119,466 L 120,465 L 120,463 L 121,462 L 121,460 L 122,459 L 122,458 L 123,457 L 123,456 L 124,455 L 124,453 L 125,452 L 125,451 L 126,450 L 126,449 L 127,448 L 127,447 L 128,446 L 128,445 L 129,444 L 129,443 L 131,441 L 131,440 L 132,439 L 132,438 L 134,436 L 134,435 L 137,432 L 137,431 L 139,429 L 139,428 L 146,421 L 146,420 L 147,419 L 148,419 L 148,418 L 149,417 L 150,417 L 159,408 L 160,408 L 163,405 L 164,405 L 166,403 L 167,403 L 169,401 L 170,401 L 171,400 L 172,400 L 173,399 L 174,399 L 175,398 L 176,398 L 177,397 L 178,397 L 179,396 L 180,396 L 181,395 L 182,395 L 183,394 L 185,394 L 186,393 L 187,393 L 188,392 L 190,392 L 191,391 L 194,391 L 195,390 L 197,390 L 198,389 L 202,389 L 203,388 L 207,388 L 208,387 Z" fill="none" stroke="black" /></svg>